<?xml version="1.0" encoding="iso-8859-1"?>
<!-- Uploaded to: SVG Repo, www.svgrepo.com, Generator: SVG Repo Mixer Tools -->
<svg fill="#000000" height="800px" width="800px" version="1.1" id="Layer_1" xmlns="http://www.w3.org/2000/svg" xmlns:xlink="http://www.w3.org/1999/xlink" 
	 viewBox="0 0 512 512" xml:space="preserve">
<g>
	<g>
		<g>
			<path d="M426.667,379.733c-9.412,0-17.067,7.654-17.067,17.067c0,9.412,7.654,17.067,17.067,17.067s17.067-7.654,17.067-17.067
				C443.733,387.388,436.079,379.733,426.667,379.733z"/>
			<path d="M170.667,379.733c-9.412,0-17.067,7.654-17.067,17.067c0,9.412,7.654,17.067,17.067,17.067
				c9.412,0,17.067-7.654,17.067-17.067C187.733,387.388,180.079,379.733,170.667,379.733z"/>
			<path d="M494.933,345.822V38.4c0-3.277-1.886-6.272-4.83-7.689c-2.97-1.425-6.468-1.024-9.037,1.024l-51.43,41.156
				c-23.578,18.859-37.103,46.993-37.103,77.184v161.391H272.93l44.151-68.625c16.333-25.404,20.181-56.38,10.564-84.992l-21-62.438
				c-1.05-3.106-3.789-5.342-7.049-5.743c-3.234-0.427-6.443,1.092-8.218,3.849l-140.194,217.95H128h-8.533V210.705l16.461-41.131
				c0.751-1.877,0.802-3.959,0.162-5.871l-17.067-51.2c-1.161-3.49-4.412-5.837-8.09-5.837H76.8c-3.678,0-6.938,2.347-8.09,5.837
				l-17.067,51.2c-0.64,1.911-0.589,3.994,0.162,5.871l16.461,41.131v102.485C29.363,321.118,0,355.593,0,396.8
				c0,47.053,38.281,85.333,85.333,85.333H128h42.667h256c47.053,0,85.333-38.281,85.333-85.333
				C512,377.677,505.6,360.064,494.933,345.822z M17.067,396.8c0-34.492,25.745-63.019,59.017-67.567
				c-20.275,15.616-33.417,40.055-33.417,67.567c0,27.511,13.141,51.951,33.417,67.567C42.812,459.819,17.067,431.292,17.067,396.8z
				 M85.897,406.298c0.026,0.247,0.026,0.495,0.051,0.734c0.094,0.811,0.307,1.579,0.427,2.381c0.307,2.057,0.649,4.105,1.092,6.118
				c0.102,0.452,0.154,0.922,0.265,1.374c0.179,0.742,0.452,1.451,0.657,2.185c0.495,1.809,1.024,3.592,1.63,5.359
				c0.213,0.631,0.375,1.28,0.606,1.903c0.205,0.572,0.486,1.101,0.708,1.664c0.674,1.715,1.417,3.379,2.202,5.035
				c0.35,0.742,0.631,1.519,1.007,2.253c0.188,0.367,0.401,0.717,0.597,1.075c0.922,1.758,1.946,3.456,2.987,5.137
				c0.444,0.717,0.828,1.459,1.289,2.167c0.119,0.171,0.23,0.341,0.341,0.521c1.604,2.389,3.311,4.693,5.146,6.904
				c0.085,0.111,0.188,0.205,0.273,0.307c0.538,0.64,1.126,1.22,1.673,1.843c1.34,1.51,2.697,3.012,4.139,4.42
				c0.256,0.256,0.512,0.521,0.776,0.777c0.657,0.623,1.374,1.195,2.048,1.8c1.289,1.152,2.577,2.287,3.925,3.354
				c0.333,0.265,0.623,0.572,0.956,0.828c-33.254-4.557-58.957-33.143-58.957-67.635c0-34.492,25.702-63.078,58.957-67.635
				c-0.333,0.256-0.623,0.563-0.956,0.828c-1.348,1.067-2.637,2.202-3.917,3.354c-0.683,0.606-1.399,1.169-2.057,1.809
				c-0.265,0.247-0.521,0.512-0.776,0.768c-1.442,1.408-2.799,2.91-4.13,4.42c-0.555,0.623-1.143,1.203-1.681,1.843
				c-0.085,0.102-0.188,0.196-0.273,0.307c-1.835,2.21-3.541,4.514-5.137,6.903c-0.119,0.171-0.23,0.35-0.35,0.529
				c-0.461,0.7-0.845,1.451-1.289,2.159c-1.041,1.681-2.065,3.379-2.987,5.137c-0.196,0.358-0.41,0.708-0.597,1.075
				c-0.375,0.734-0.657,1.51-1.007,2.253c-0.785,1.655-1.527,3.319-2.202,5.035c-0.222,0.563-0.503,1.092-0.708,1.664
				c-0.23,0.623-0.393,1.28-0.606,1.903c-0.606,1.758-1.135,3.55-1.63,5.359c-0.205,0.734-0.478,1.442-0.657,2.185
				c-0.111,0.452-0.162,0.922-0.265,1.374c-0.444,2.014-0.785,4.053-1.092,6.118c-0.119,0.802-0.333,1.57-0.427,2.381
				c-0.026,0.239-0.026,0.486-0.051,0.734c-0.35,3.123-0.563,6.281-0.563,9.498C85.333,400.017,85.547,403.174,85.897,406.298z
				 M435.2,149.333c0-4.71,3.814-8.533,8.533-8.533c4.719,0,8.533,3.823,8.533,8.533v34.133c0,4.71-3.814,8.533-8.533,8.533
				c-4.719,0-8.533-3.823-8.533-8.533V149.333z M170.667,430.933c-18.825,0-34.133-15.309-34.133-34.133
				c0-18.825,15.309-34.133,34.133-34.133S204.8,377.976,204.8,396.8C204.8,415.625,189.491,430.933,170.667,430.933z
				 M171.477,311.467l124.646-193.784l15.334,45.611c7.97,23.671,4.787,49.297-8.721,70.306l-50.099,77.867H171.477z M332.8,405.333
				h-25.6v25.6c0,4.71-3.814,8.533-8.533,8.533s-8.533-3.823-8.533-8.533v-25.6h-25.6c-4.719,0-8.533-3.823-8.533-8.533
				c0-4.71,3.814-8.533,8.533-8.533h25.6v-25.6c0-4.71,3.814-8.533,8.533-8.533s8.533,3.823,8.533,8.533v25.6h25.6
				c4.719,0,8.533,3.823,8.533,8.533C341.333,401.511,337.519,405.333,332.8,405.333z M426.667,430.933
				c-18.825,0-34.133-15.309-34.133-34.133c0-18.825,15.309-34.133,34.133-34.133S460.8,377.976,460.8,396.8
				C460.8,415.625,445.491,430.933,426.667,430.933z"/>
			<path d="M286.336,193.434c-3.942-2.62-9.225-1.553-11.836,2.364l-17.067,25.6c-2.62,3.925-1.562,9.225,2.364,11.836
				c1.459,0.973,3.106,1.434,4.727,1.434c2.756,0,5.47-1.331,7.108-3.797l17.067-25.6
				C291.319,201.344,290.261,196.045,286.336,193.434z"/>
		</g>
	</g>
</g>
</svg>