<svg width="15" height="9" viewBox="0 0 15 9" fill="none" xmlns="http://www.w3.org/2000/svg">
<path d="M15 8.76152C14.4544 8.90499 14.117 8.7677 13.8143 8.29771C13.1347 7.24518 12.3845 6.24088 11.6607 5.21803C11.5674 5.08569 11.4704 4.95582 11.3496 4.79133C10.4929 5.98609 9.63747 7.12397 8.83465 8.30761C8.5475 8.7306 8.24599 8.91488 7.70998 8.76523L10.9308 4.2966L7.93252 0.260856C8.44819 0.156963 8.80474 0.210146 9.1206 0.687559C9.81814 1.74133 10.5875 2.74439 11.3544 3.80558C12.1261 2.7481 12.8859 1.7438 13.6037 0.699927C13.8921 0.276934 14.202 0.116148 14.72 0.271987C14.3276 0.810004 13.9435 1.33936 13.5571 1.86501C13.0354 2.57371 12.5233 3.29106 11.9825 3.98492C11.7899 4.23228 11.821 4.39307 11.9933 4.62683C12.9935 5.9861 13.9818 7.35897 15 8.76152ZM0.00358939 4.22239C0.0897344 3.7759 0.147164 3.32075 0.26681 2.88291C0.984685 0.232409 3.92797 -0.869598 5.94999 0.772899C7.13448 1.73638 7.42881 3.09441 7.37018 4.62559H0.693946C0.593443 7.37257 2.50658 9.03115 4.94496 8.18516C5.80043 7.88832 6.30414 7.1957 6.55659 6.32993C6.68461 5.89581 6.89639 5.82778 7.29122 5.95146C7.08902 7.03492 6.63077 7.94027 5.67361 8.50673C4.23786 9.35519 2.18832 9.08062 1.11031 7.90193C0.473798 7.20931 0.203398 6.34725 0.0837521 5.41592C0.0658052 5.2675 0.028715 5.12156 0 4.97438C0.00239292 4.72371 0.00358939 4.47305 0.00358939 4.22239ZM0.705911 4.0381H6.73965C6.70017 2.05177 5.50371 0.640559 3.86815 0.628191C2.07346 0.613349 0.78368 1.99117 0.705911 4.0381Z" fill="black"/>
</svg>
