<svg viewBox="0 0 11 15" fill="none" xmlns="http://www.w3.org/2000/svg">
<path fill-rule="evenodd" clip-rule="evenodd" d="M3.05633 0H7.94367C9.62848 0 11 1.32002 11 2.90473C11 3.83116 10.5308 4.66798 9.80393 5.2022C10.5308 5.7371 11 6.57324 11 7.50036C11 9.08438 9.62848 10.4044 7.94367 10.4044C7.25721 10.4044 6.62298 10.1859 6.11266 9.81917V12.0953C6.11266 13.68 4.74184 15 3.05633 15C1.37152 15 0 13.68 0 12.0953C0 11.1688 0.469232 10.3327 1.19607 9.7978C0.469232 9.2629 0 8.42679 0 7.50036C0 6.57324 0.469232 5.7371 1.19607 5.2022C0.469232 4.66798 0 3.83116 0 2.90473C0 1.32002 1.37152 0 3.05633 0ZM4.88734 10.4044H3.05633C2.06076 10.4044 1.22531 11.1592 1.22531 12.0953C1.22531 13.032 2.06076 13.7861 3.05633 13.7861C4.0526 13.7861 4.88734 13.032 4.88734 12.0953V10.4044ZM6.11266 7.50036C6.11266 6.56359 6.9474 5.80879 7.94367 5.80879C8.93924 5.80879 9.77469 6.56359 9.77469 7.50036C9.77469 8.43644 8.93924 9.19121 7.94367 9.19121C6.9474 9.19121 6.11266 8.43644 6.11266 7.50036ZM3.03335 5.80949C2.04753 5.82051 1.22531 6.57117 1.22531 7.50036C1.22531 8.43644 2.06076 9.19121 3.05633 9.19121H4.88734V5.80879H3.05633L3.03335 5.80949ZM4.88734 4.5956V1.21386H3.05633C2.06076 1.21386 1.22531 1.96796 1.22531 2.90473C1.22531 3.8415 2.06076 4.5956 3.05633 4.5956H4.88734ZM6.11266 4.5956H7.94367C8.93924 4.5956 9.77469 3.8415 9.77469 2.90473C9.77469 1.96796 8.93924 1.21386 7.94367 1.21386H6.11266V4.5956Z" fill="black"/>
</svg>
