<svg viewBox="0 0 15 15" fill="none" xmlns="http://www.w3.org/2000/svg">
<path d="M7.49997 0C5.71909 7.57168e-05 3.99634 0.649866 2.63998 1.83311C1.28361 3.01634 0.382144 4.65582 0.0968697 6.45817C-0.188404 8.26053 0.161133 10.1082 1.08294 11.6705C2.00474 13.2328 3.43866 14.4078 5.12812 14.9853C5.50312 15.0526 5.64375 14.8219 5.64375 14.62C5.64375 14.4374 5.63436 13.8318 5.63436 13.1878C3.74999 13.5435 3.2625 12.7169 3.1125 12.2843C2.94606 11.8636 2.68221 11.4908 2.34375 11.1981C2.08126 11.0539 1.70626 10.6983 2.33437 10.6887C2.57421 10.7154 2.80424 10.8009 3.00497 10.9381C3.2057 11.0753 3.37122 11.2601 3.4875 11.4769C3.59007 11.6658 3.728 11.8321 3.89339 11.9663C4.05877 12.1005 4.24835 12.1999 4.45126 12.2588C4.65418 12.3178 4.86644 12.3351 5.07589 12.3097C5.28534 12.2844 5.48786 12.217 5.67184 12.1113C5.70431 11.7203 5.87423 11.3548 6.14998 11.0828C4.48124 10.8905 2.7375 10.2273 2.7375 7.28601C2.72696 6.52176 3.00201 5.78235 3.50625 5.2194C3.27696 4.55518 3.30379 3.82625 3.58125 3.18163C3.58125 3.18163 4.20934 2.97977 5.64373 3.96983C6.87094 3.62377 8.1665 3.62377 9.3937 3.96983C10.8281 2.97017 11.4562 3.18163 11.4562 3.18163C11.7337 3.82624 11.7605 4.55519 11.5312 5.2194C12.0369 5.78138 12.3122 6.52144 12.2999 7.28601C12.2999 10.2369 10.5468 10.8905 8.87808 11.0828C9.05707 11.2688 9.19492 11.4921 9.28227 11.7376C9.36962 11.983 9.40443 12.2449 9.38433 12.5054C9.38433 13.5339 9.37495 14.3605 9.37495 14.62C9.37495 14.8219 9.51557 15.0622 9.89057 14.9853C11.5771 14.4031 13.0069 13.2253 13.9247 11.6622C14.8426 10.0991 15.1888 8.25245 14.9016 6.45183C14.6143 4.65122 13.7123 3.01388 12.3565 1.83208C11.0008 0.650279 9.27949 0.000949606 7.49997 0Z" fill="black"/>
</svg>
