<svg width="15" height="15" viewBox="0 0 15 15" fill="none" xmlns="http://www.w3.org/2000/svg">
<path d="M10.1467 4.61569C10.5247 4.61569 10.8341 4.3154 10.8341 3.94737C10.8341 3.57934 10.5247 3.27905 10.1467 3.27905C9.76874 3.27905 9.4593 3.57934 9.4593 3.94737C9.4593 4.31807 9.76547 4.61569 10.1467 4.61569ZM9.47507 5.2008H10.8031V10.0988H9.47507V5.2008ZM5.24948 8.45652H7.04631L7.53195 10.0972H8.89208L6.91688 3.66148H5.2658V4.29673L3.53369 10.0972H4.76384L5.24948 8.45652ZM6.13974 4.80664L6.80376 7.3311H5.47626L6.13974 4.80664Z" fill="black"/>
<path d="M0 0V14.4048H15V0H0ZM13.8754 13.2709H1.1464V1.13395H13.8754V13.2709Z" fill="black"/>
</svg>
