<svg viewBox="0 0 15 15" fill="none" xmlns="http://www.w3.org/2000/svg">
<path d="M0 0V15H15V0H0ZM8.16715 11.2456C8.16715 13.0901 7.27326 13.7049 5.94767 13.7049C5.60124 13.7045 5.257 13.65 4.92733 13.5436L5.07558 12.5581C5.31691 12.6408 5.57049 12.6821 5.82558 12.6802C6.52326 12.6802 6.94622 12.3663 6.94622 11.2064V6.9157H8.16715V11.2456ZM11.0102 13.6962C10.3822 13.6974 9.76313 13.5479 9.20494 13.2602L9.47529 12.2485C9.96816 12.5265 10.5229 12.6764 11.0887 12.6846C11.8605 12.689 12.2965 12.3227 12.2965 11.7776C12.2965 11.2326 11.9651 10.9884 11.1192 10.6701C10.016 10.2776 9.31395 9.68459 9.31395 8.72965C9.31395 7.63517 10.2253 6.81105 11.6773 6.81105C12.2294 6.79423 12.7776 6.90777 13.2776 7.14244L12.9855 8.12355C12.5723 7.91344 12.1147 7.80576 11.6512 7.80959C10.875 7.80959 10.548 8.21948 10.548 8.61192C10.548 9.12645 10.936 9.36628 11.8256 9.70639C12.9855 10.1424 13.5436 10.7311 13.5436 11.6904C13.5436 12.7674 12.7326 13.6962 11.0102 13.6962Z" fill="black"/>
</svg>
