<svg viewBox="0 0 15 15" fill="none" xmlns="http://www.w3.org/2000/svg">
<path fill-rule="evenodd" clip-rule="evenodd" d="M8.83556 0C8.73247 0.00143848 8.63029 0.0195295 8.53299 0.0535714C9.39938 0.6225 8.37742 1.44643 8.85487 2.14286C8.82197 1.90861 8.85929 1.66988 8.96212 1.45679C9.06494 1.2437 9.22867 1.0658 9.43264 0.945536C9.58554 0.818571 9.68371 0.773036 9.65098 0.563036C9.59787 0.219107 9.13866 0 8.83556 0ZM10.0694 0.221786C9.9498 0.823393 9.8012 0.845357 9.35968 1.23268C9.18748 1.36825 9.06596 1.55773 9.01468 1.77064C8.96339 1.98354 8.98534 2.20749 9.07697 2.40643C7.25299 1.69929 4.91508 1.27179 3.20108 2.49536C2.58468 2.93518 2.20862 3.56679 1.44845 3.82446C0.957046 3.99268 0.474229 3.94286 0.166298 4.42929C0.0536797 4.56975 -0.00515116 4.74567 0.000354153 4.92552C0.00585947 5.10537 0.0753408 5.27739 0.19634 5.41071C0.288075 5.50446 0.464572 5.56446 0.537531 5.65982C0.579912 5.71339 0.578839 5.76696 0.619074 5.83821C0.69018 6.00426 0.792942 6.15491 0.92164 6.28179C1.0005 6.34661 1.27141 6.40982 1.31755 6.47893C1.37549 6.56518 1.22528 6.9075 1.35135 6.96107C1.43611 7.00018 1.68449 6.5625 1.70863 6.52393C1.65928 6.86839 1.59437 7.47964 1.98223 6.97071C2.16624 6.72911 2.1775 6.64929 2.48704 6.59571C2.68513 6.56135 2.88534 6.54059 3.08627 6.53357C4.23415 6.49347 5.3537 6.89458 6.21423 7.65424C7.07477 8.41391 7.61073 9.47425 7.71167 10.6168C7.65373 10.3489 7.30342 9.92036 6.97725 10.0221C6.8383 10.065 6.7868 10.3045 6.6956 10.4432C6.5803 10.6191 6.43822 10.776 6.27448 10.9082C6.3022 10.6485 6.28916 10.3861 6.23585 10.1304C6.13822 10.5311 5.94241 11.1959 5.4494 11.0882C5.28516 11.0632 5.13128 10.9925 5.00531 10.8844C4.87934 10.7762 4.78636 10.6348 4.73697 10.4764C4.67313 10.0693 5.10391 9.59196 4.41134 9.55821C3.0219 9.49018 3.34324 11.5307 4.16349 12.0627C3.97498 12.0835 3.79109 12.1347 3.61898 12.2143C4.14003 12.5165 4.72713 12.6869 5.32919 12.7108C5.93126 12.7347 6.53005 12.6113 7.07347 12.3514C7.6169 12.0915 8.08848 11.7029 8.4472 11.2194C8.80591 10.736 9.04089 10.1723 9.13169 9.5775C9.25108 10.1222 9.24833 10.6866 9.12364 11.2302C9.05698 11.519 8.95726 11.7993 8.82644 12.0654C8.64911 12.4248 8.41346 12.7524 8.12904 13.035C7.96059 13.2016 7.65158 13.3693 7.54536 13.5391C8.19555 13.453 8.83088 13.2786 9.43372 13.0205C8.80968 13.8741 7.9786 14.5553 7.01856 15C8.04791 14.9273 9.04296 14.5998 9.91395 14.0472C10.7849 13.4946 11.5045 12.7341 12.0077 11.8345C11.8473 12.7342 11.4911 13.5879 10.9642 14.3352C11.6729 13.8614 12.2758 13.2465 12.7351 12.529C13.1943 11.8115 13.5001 11.0069 13.6332 10.1657C13.7653 10.7815 13.8031 11.4136 13.7453 12.0407C14.3274 11.233 14.7206 10.3051 14.896 9.32552C15.0714 8.3459 15.0245 7.33946 14.7587 6.38036C14.5554 5.63477 14.2505 4.9206 13.8526 4.25786C13.6989 3.99962 13.5307 3.7503 13.3488 3.51107C13.2775 3.41839 12.8961 3.07929 12.8961 2.97536C12.8928 2.98571 12.8902 2.98571 12.888 2.97536C12.888 4.71536 11.0104 5.83232 9.43801 5.36625C10.0359 5.31994 10.601 5.0749 11.0431 4.67025C11.4851 4.26561 11.7787 3.7247 11.8768 3.13393C11.9637 2.51414 11.8305 1.88353 11.5003 1.35157C11.1702 0.819614 10.6639 0.419891 10.0694 0.221786Z" fill="black"/>
</svg>
