<svg width="15" height="17" viewBox="0 0 15 17" fill="none" xmlns="http://www.w3.org/2000/svg">
<path d="M6.82322 0.172442C7.23308 -0.0569623 7.76693 -0.0579985 8.17643 0.172442C10.2366 1.31077 12.2975 2.44732 14.3573 3.58634C14.7448 3.79974 15.0039 4.22136 15 4.65789V11.5065C15.0028 11.9611 14.7181 12.3928 14.3093 12.6014C12.2559 13.7334 10.2035 14.8669 8.15047 15.9989C7.73213 16.2328 7.18757 16.2148 6.7823 15.9617C6.16669 15.6128 5.55001 15.2655 4.93434 14.9169C4.80853 14.8436 4.66671 14.7852 4.57787 14.6659C4.65641 14.5624 4.79682 14.5495 4.91091 14.5043C5.16788 14.4244 5.40389 14.2961 5.63997 14.1717C5.69966 14.1317 5.77255 14.1471 5.82977 14.1828C6.35619 14.4779 6.87797 14.7817 7.40616 15.074C7.51884 15.1376 7.63293 15.0532 7.72925 15.0007C9.74429 13.887 11.7618 12.7776 13.7765 11.6636C13.8511 11.6285 13.8924 11.551 13.8863 11.4711C13.8878 9.21184 13.8867 6.95222 13.8871 4.693C13.8956 4.60228 13.8419 4.51886 13.758 4.48173C11.7117 3.35486 9.66646 2.22626 7.62051 1.0991C7.58507 1.07527 7.54307 1.06248 7.50006 1.06242C7.45704 1.06236 7.41501 1.07502 7.37949 1.09875C5.33354 2.22626 3.28865 3.3559 1.2427 4.48271C1.15911 4.5199 1.103 4.60193 1.11295 4.693C1.1133 6.95222 1.11295 9.21184 1.11295 11.4714C1.1094 11.5104 1.11817 11.5496 1.13806 11.5835C1.15795 11.6175 1.18802 11.6448 1.22422 11.6615C1.77019 11.9643 2.31687 12.2649 2.86319 12.5666C3.17097 12.7286 3.54886 12.8249 3.88796 12.7007C4.1872 12.5958 4.39696 12.2972 4.39125 11.9865C4.39408 9.74047 4.38984 7.4941 4.39337 5.24841C4.38589 5.1487 4.48262 5.06632 4.58176 5.07571C4.84409 5.07398 5.10677 5.07225 5.3691 5.0764C5.4786 5.07398 5.55396 5.18134 5.54042 5.2818C5.53936 7.54205 5.54324 9.80236 5.53865 12.0626C5.53936 12.665 5.28627 13.3204 4.71646 13.6152C4.01448 13.9708 3.14683 13.8954 2.45333 13.5544C1.85296 13.2614 1.28003 12.9156 0.690315 12.6017C0.280513 12.3943 -0.00283402 11.9608 5.06704e-05 11.5066V4.65789C-0.00424693 4.21232 0.265207 3.78304 0.664706 3.57275C2.71778 2.43977 4.7705 1.30594 6.82322 0.172442Z" fill="black"/>
<path d="M8.61418 4.91661C9.50961 4.86025 10.4682 4.88322 11.274 5.31457C11.8978 5.64512 12.2437 6.33886 12.2547 7.0166C12.2373 7.10801 12.1396 7.15844 12.0503 7.15217C11.7905 7.15182 11.5307 7.15562 11.2709 7.15044C11.1607 7.15458 11.0966 7.05522 11.0828 6.95995C11.0081 6.63567 10.8273 6.31451 10.5151 6.1581C10.036 5.92351 9.48041 5.93532 8.95793 5.94021C8.5765 5.96001 8.16635 5.99231 7.8432 6.21164C7.59512 6.37778 7.51977 6.71316 7.60831 6.98326C7.69179 7.17721 7.92074 7.23978 8.10807 7.29746C9.18717 7.57344 10.3307 7.54598 11.3892 7.90917C11.8274 8.05723 12.2561 8.34507 12.4061 8.79374C12.6024 9.39509 12.5163 10.1139 12.0788 10.5966C11.724 10.9939 11.2072 11.2101 10.6918 11.3276C10.0061 11.4771 9.29456 11.4809 8.59823 11.4145C7.94346 11.3415 7.26209 11.1733 6.75662 10.737C6.32439 10.37 6.11327 9.79823 6.13423 9.24634C6.13924 9.15314 6.23414 9.08814 6.32545 9.0958C6.58707 9.09373 6.84869 9.09304 7.11032 9.09614C7.21481 9.08883 7.29229 9.17714 7.29765 9.27345C7.34592 9.58241 7.46466 9.90669 7.74018 10.0899C8.2719 10.4253 8.93909 10.4023 9.54794 10.4117C10.0523 10.3898 10.6186 10.3832 11.0302 10.0572C11.2474 9.87128 11.3117 9.56019 11.253 9.29256C11.1894 9.06661 10.9477 8.96132 10.7401 8.89247C9.67486 8.56296 8.51857 8.68253 7.4636 8.30989C7.03532 8.16189 6.62116 7.88206 6.45661 7.4518C6.22701 6.84286 6.33222 6.08965 6.81561 5.62319C7.28693 5.1592 7.9673 4.98057 8.61418 4.91661Z" fill="black"/>
</svg>
