<svg width="15" height="17" viewBox="0 0 15 17" fill="none" xmlns="http://www.w3.org/2000/svg">
<path d="M6.74375 7.17222C6.48585 7.32234 6.27789 7.54619 6.14618 7.81547C6.01447 8.08475 5.96492 8.38736 6.00379 8.68504C6.04267 8.98271 6.16822 9.26208 6.36457 9.48781C6.56092 9.71354 6.81926 9.8755 7.10691 9.9532C7.39456 10.0309 7.6986 10.0209 7.98059 9.92434C8.26257 9.82782 8.50984 9.64916 8.69112 9.41096C8.87239 9.17275 8.97954 8.8857 8.999 8.5861C9.01847 8.2865 8.94937 7.9878 8.80046 7.72779C8.60078 7.37916 8.27192 7.12477 7.88622 7.02059C7.50052 6.9164 7.08956 6.97094 6.74375 7.17222ZM13.4922 8.81924C13.3934 8.70534 13.2891 8.59114 13.1793 8.47663C13.256 8.39538 13.3302 8.31421 13.4019 8.23311C14.7557 6.69948 15.3271 5.16147 14.7977 4.23681C14.29 3.35027 12.7798 3.08607 10.8893 3.45669C10.703 3.49342 10.5178 3.53486 10.3337 3.581C10.2984 3.45846 10.2609 3.33663 10.2212 3.2155C9.57982 1.26685 8.54377 -0.000671231 7.48485 2.66675e-07C6.46945 0.000467765 5.48808 1.18752 4.86202 3.02387C4.80043 3.20502 4.74345 3.38769 4.69108 3.57187C4.56795 3.54141 4.4443 3.51328 4.32013 3.48746C2.32544 3.07455 0.718837 3.3465 0.190429 4.27167C-0.316254 5.15886 0.213639 6.60901 1.47906 8.07295C1.60456 8.2178 1.73361 8.3594 1.86622 8.49775C1.70989 8.6601 1.56187 8.82235 1.4239 8.9837C0.189147 10.427 -0.310445 11.8534 0.19542 12.7368C0.717859 13.6492 2.30185 13.9475 4.22983 13.565C4.38607 13.5338 4.54146 13.4986 4.69597 13.4596C4.75258 13.6588 4.81467 13.8563 4.88225 14.052C5.50554 15.8515 6.48142 17.0004 7.49322 17C8.53815 16.9994 9.58566 15.7651 10.2203 13.8901C10.2704 13.7419 10.3179 13.588 10.3629 13.4296C10.5625 13.4797 10.7633 13.5241 10.9655 13.5629C12.8231 13.9172 14.2977 13.6385 14.8027 12.7545C15.3241 11.8414 14.7865 10.3099 13.4922 8.81924ZM0.814626 4.63405C1.13993 4.06455 2.4529 3.84237 4.17515 4.19885C4.28522 4.22167 4.39718 4.24717 4.51101 4.27535C4.34287 5.02528 4.22423 5.78561 4.15586 6.55136C3.53444 6.99213 2.94196 7.47299 2.38215 7.99092C2.25881 7.86231 2.13876 7.73059 2.02201 7.59576C0.937764 6.34141 0.509276 5.16867 0.814626 4.63405ZM4.09134 9.50291C3.6609 9.1743 3.26087 8.83766 2.8978 8.49907C3.26062 8.16258 3.6609 7.82707 4.09046 7.49934C4.07502 7.83319 4.06738 8.1673 4.06751 8.50166C4.06774 8.83553 4.07568 9.16928 4.09134 9.50291ZM4.09082 12.8524C3.3601 13.0162 2.60572 13.0431 1.86537 12.9316C1.66242 12.9157 1.46486 12.8579 1.28491 12.762C1.10495 12.666 0.946429 12.5339 0.819128 12.3737C0.512193 11.8377 0.913349 10.6924 1.96934 9.45804C2.1021 9.30334 2.23921 9.15268 2.38068 9.00606C2.94058 9.52671 3.53402 10.0094 4.15712 10.4511C4.22642 11.2267 4.34645 11.9967 4.51644 12.7563C4.37538 12.7919 4.23351 12.8239 4.09082 12.8524ZM10.0775 6.01899C9.79478 5.83935 9.50853 5.66549 9.21878 5.49738C8.93366 5.33192 8.64511 5.17267 8.35312 5.01963C8.85306 4.8077 9.34449 4.62669 9.81892 4.47919C9.93076 4.98774 10.0171 5.50166 10.0775 6.01899ZM5.54322 3.25992C6.0796 1.68645 6.87327 0.726476 7.48524 0.726213C8.137 0.725898 8.98381 1.76173 9.53754 3.44419C9.57351 3.55387 9.60751 3.66416 9.63955 3.77508C8.91208 4.00256 8.20034 4.27834 7.50899 4.60059C6.82051 4.27455 6.11101 3.9957 5.38531 3.76595C5.43382 3.59599 5.48645 3.42732 5.54322 3.25992ZM5.20568 4.47014C5.70055 4.62721 6.18724 4.80934 6.66391 5.01584C6.07329 5.32314 5.49794 5.65787 4.93785 6.02002C5.00551 5.47772 5.09555 4.95815 5.20568 4.47014ZM4.93908 10.9817C5.21839 11.162 5.50178 11.3356 5.78925 11.5025C6.08249 11.6727 6.37964 11.8358 6.68068 11.9917C6.20037 12.2054 5.7095 12.394 5.21 12.5569C5.0986 12.0621 5.00757 11.5334 4.93908 10.9817ZM9.53858 13.6554C9.3143 14.3754 8.96047 15.0477 8.49479 15.6386C8.37971 15.8079 8.23138 15.9516 8.05905 16.0608C7.88673 16.17 7.69402 16.2425 7.49283 16.2736C6.87891 16.274 6.09532 15.3514 5.56228 13.8125C5.49951 13.6306 5.44175 13.447 5.38902 13.2617C6.1182 13.0245 6.83059 12.7378 7.52129 12.4035C8.21832 12.7278 8.93573 13.0056 9.66888 13.2352C9.62885 13.3763 9.58541 13.5163 9.53858 13.6554ZM9.84398 12.5298C9.36409 12.3802 8.86553 12.1961 8.35838 11.9811C8.64427 11.8294 8.93224 11.6692 9.22228 11.5005C9.51991 11.3272 9.80995 11.1496 10.0924 10.9676C10.0361 11.4923 9.95323 12.0137 9.84398 12.5298ZM10.2202 8.49852C10.2209 9.01472 10.2049 9.53051 10.1723 10.0459C9.75691 10.3293 9.3184 10.606 8.86215 10.8716C8.40779 11.1361 7.9576 11.3791 7.51599 11.5991C7.05128 11.3746 6.59553 11.1326 6.14874 10.8732C5.70446 10.6154 5.27038 10.3408 4.84648 10.0496C4.80773 9.53435 4.78821 9.0182 4.78792 8.50111C4.78756 7.98439 4.80676 7.46836 4.8453 6.95272C5.26055 6.6668 5.69587 6.39029 6.14596 6.12829C6.59811 5.86506 7.05394 5.62304 7.50725 5.40369C7.96624 5.62859 8.41695 5.8696 8.85938 6.12674C9.30334 6.38401 9.73865 6.65563 10.1653 6.94161C10.2019 7.45979 10.2202 7.97876 10.2202 8.49852ZM11.0268 4.16963C12.6466 3.85197 13.8679 4.06566 14.1739 4.59992C14.4998 5.16909 14.0327 6.42613 12.8639 7.75031C12.7993 7.82336 12.7323 7.89677 12.6629 7.97044C12.0934 7.4514 11.4895 6.97207 10.8554 6.53576C10.7914 5.77838 10.6772 5.02617 10.5135 4.28417C10.688 4.24091 10.859 4.20273 11.0268 4.16963ZM10.9173 7.47161C11.345 7.78646 11.7563 8.12347 12.1493 8.48127C11.758 8.84496 11.3481 9.18779 10.9212 9.50834C10.9343 9.17179 10.9407 8.83507 10.9405 8.49818C10.9404 8.15592 10.9326 7.81373 10.9173 7.47161ZM14.1784 12.392C13.872 12.9285 12.6879 13.1522 11.0993 12.8492C10.9173 12.8146 10.7305 12.7733 10.5389 12.7255C10.6986 11.9739 10.8077 11.2124 10.8656 10.446C11.4986 10.0021 12.1006 9.51474 12.6673 8.98749C12.7664 9.09136 12.8607 9.19473 12.9502 9.29763C13.4569 9.85314 13.8579 10.4979 14.1331 11.1998C14.2211 11.3848 14.2705 11.5861 14.2783 11.7912C14.2861 11.9963 14.2521 12.2008 14.1784 12.392Z" fill="black"/>
</svg>
