<svg viewBox="0 0 10 14" fill="none" xmlns="http://www.w3.org/2000/svg">
<path d="M1.26247 6.62804C2.45646 7.04771 3.71605 7.24974 4.98139 7.22453C6.24676 7.24958 7.50636 7.04738 8.70031 6.62754C9.63229 6.26405 9.96279 5.86006 9.96279 5.62756V3.8501C9.63695 4.0683 9.28739 4.24879 8.92081 4.38809C7.65756 4.84043 6.32301 5.06096 4.98139 5.03907C3.63989 5.06055 2.30548 4.84038 1.04198 4.38909C0.67522 4.24978 0.325617 4.06894 0 3.8501V5.62506C0 5.86206 0.331493 6.26405 1.26247 6.62804Z" fill="black"/>
<path d="M1.26247 9.98015C1.68427 10.141 2.11922 10.265 2.56245 10.3506C3.35945 10.5048 4.16962 10.5807 4.98139 10.5771C5.79315 10.5808 6.60332 10.5052 7.40034 10.3511C7.84356 10.2655 8.27852 10.1415 8.70031 9.98065C9.63229 9.61715 9.96279 9.21316 9.96279 8.98067V7.2857C9.69345 7.44777 9.41036 7.5858 9.11681 7.69819C7.78972 8.16806 6.38897 8.39551 4.98139 8.36968C3.57367 8.39471 2.17291 8.16642 0.845982 7.69569C0.552549 7.58301 0.269486 7.445 0 7.2832V8.97967C0 9.21266 0.331493 9.61515 1.26247 9.98015Z" fill="black"/>
<path d="M4.98139 14.0002C7.73134 14.0002 9.96279 13.1282 9.96279 12.0532V10.6348C9.71777 10.7825 9.46109 10.9099 9.1953 11.0158L9.11681 11.0473C7.78998 11.5185 6.38921 11.7473 4.98139 11.7227C3.57352 11.748 2.17263 11.5192 0.845982 11.0473C0.818983 11.0373 0.792983 11.0258 0.767484 11.0158C0.501702 10.9099 0.245019 10.7825 0 10.6348V12.0532C0 13.1282 2.23145 14.0002 4.98139 14.0002Z" fill="black"/>
<path d="M4.98139 3.89392C7.73254 3.89392 9.96279 3.02223 9.96279 1.94696C9.96279 0.871683 7.73254 0 4.98139 0C2.23025 0 0 0.871683 0 1.94696C0 3.02223 2.23025 3.89392 4.98139 3.89392Z" fill="black"/>
</svg>
