<svg viewBox="0 0 15 9" fill="none" xmlns="http://www.w3.org/2000/svg">
<path d="M12.375 2.63617C11.8125 2.44283 11.3161 2.0952 10.9425 1.63314C10.5308 1.11832 10.0065 0.704317 9.40988 0.422786C8.81321 0.141255 8.15992 -0.000340447 7.5 0.00883235C6.61227 -0.0539127 5.73344 0.219352 5.0385 0.774208C4.34357 1.32906 3.88353 2.1248 3.75 3.00294C4.013 2.56374 4.40884 2.21914 4.88055 2.01872C5.35225 1.8183 5.8755 1.77241 6.375 1.88764C6.93652 2.0866 7.43219 2.43626 7.8075 2.89815C8.22147 3.40885 8.74671 3.81858 9.34325 4.09616C9.93979 4.37374 10.5919 4.51186 11.25 4.5C12.1377 4.56275 13.0166 4.28948 13.7115 3.73463C14.4064 3.17977 14.8665 2.38404 15 1.50589C14.7418 1.95034 14.3472 2.30015 13.8745 2.50368C13.4019 2.7072 12.8761 2.75365 12.375 2.63617ZM2.625 6.36383C3.18746 6.55717 3.68394 6.9048 4.0575 7.36686C4.46921 7.88168 4.99346 8.29568 5.59012 8.57721C6.18679 8.85874 6.84008 9.00034 7.5 8.99117C8.38773 9.05391 9.26656 8.78065 9.9615 8.22579C10.6564 7.67094 11.1165 6.8752 11.25 5.99706C10.987 6.43626 10.5912 6.78086 10.1195 6.98128C9.64775 7.1817 9.1245 7.22759 8.625 7.11236C8.06348 6.9134 7.56781 6.56374 7.1925 6.10185C6.77742 5.59241 6.25196 5.18358 5.65568 4.90612C5.0594 4.62866 4.40783 4.48981 3.75 4.5C2.86227 4.43725 1.98344 4.71052 1.2885 5.26538C0.593571 5.82023 0.133532 6.61596 0 7.49411C0.25823 7.04966 0.652806 6.69985 1.12548 6.49632C1.59814 6.2928 2.12386 6.24635 2.625 6.36383Z" fill="black"/>
</svg>
