<svg width="15" height="15" viewBox="0 0 15 15" fill="none" xmlns="http://www.w3.org/2000/svg">
<path d="M0 7.5V15H15V0H0V7.5ZM9.10188 12.2662C9.16937 12.2281 9.42125 12.0825 9.65938 11.9444L10.0906 11.6944L10.1813 11.8281C10.3075 12.0206 10.5831 12.285 10.75 12.3731C11.2288 12.6256 11.8856 12.59 12.2094 12.2994C12.33 12.1975 12.4056 12.0462 12.4056 11.8775C12.4056 11.8675 12.4056 11.8581 12.405 11.8481V11.8494C12.405 11.6756 12.3831 11.5994 12.2925 11.4681C12.1762 11.3019 11.9381 11.1619 11.2619 10.8681C10.4881 10.535 10.155 10.3281 9.85 9.99937C9.66625 9.79062 9.52437 9.53938 9.44188 9.26313L9.43812 9.24937C9.38125 9.0375 9.36687 8.50625 9.41187 8.2925C9.57125 7.54437 10.1356 7.02375 10.95 6.86875C11.2144 6.81875 11.8287 6.8375 12.0881 6.90188C12.4694 6.99688 12.7594 7.16688 13.0262 7.44313C13.1644 7.59063 13.3694 7.85938 13.3856 7.92438C13.3906 7.94312 12.7381 8.38062 12.3431 8.62625C12.3288 8.63562 12.2712 8.57375 12.2075 8.47875C12.0138 8.1975 11.8119 8.07625 11.5025 8.055C11.0475 8.02375 10.755 8.26188 10.7575 8.65937C10.7575 8.66625 10.7569 8.67438 10.7569 8.6825C10.7569 8.77688 10.7806 8.86563 10.8225 8.94312L10.8212 8.94C10.9212 9.14688 11.1075 9.27125 11.69 9.52313C12.7644 9.98563 13.2238 10.29 13.5094 10.7231C13.8281 11.2063 13.9 11.9781 13.6831 12.5519C13.4456 13.1756 12.855 13.5994 12.0238 13.7394C11.7669 13.785 11.1575 13.7781 10.8813 13.7281C10.2787 13.6206 9.7075 13.3231 9.355 12.9325C9.21688 12.7806 8.9475 12.3825 8.96438 12.3544C8.97125 12.3444 9.03312 12.3062 9.10188 12.2662ZM3.28625 7.54062C3.28625 7.20687 3.29312 6.92812 3.3025 6.92188C3.31 6.91187 4.49813 6.90688 5.93813 6.90938L8.56 6.91688L8.56687 7.52875L8.57187 8.14313H6.61875V13.6906H5.2375V8.14313H3.28625V7.54062Z" fill="black"/>
</svg>
