<?xml version="1.0" encoding="iso-8859-1"?>
<!-- Uploaded to: SVG Repo, www.svgrepo.com, Generator: SVG Repo Mixer Tools -->
<svg fill="#000000" version="1.1" id="Layer_1" xmlns="http://www.w3.org/2000/svg" xmlns:xlink="http://www.w3.org/1999/xlink" 
	 viewBox="0 0 512 512" xml:space="preserve">
<g>
	<g>
		<rect x="367.846" y="164.456" width="59.058" height="59.058"/>
	</g>
</g>
<g>
	<g>
		<rect x="226.471" y="164.456" width="59.058" height="59.058"/>
	</g>
</g>
<g>
	<g>
		<rect x="85.096" y="164.456" width="59.058" height="59.058"/>
	</g>
</g>
<g>
	<g>
		<polygon points="0,0 0,64.784 15.673,64.784 31.347,64.784 480.653,64.784 496.327,64.784 512,64.784 512,0 		"/>
	</g>
</g>
<g>
	<g>
		<path d="M496.327,96.131h-15.673H31.347H15.673H0V512h512V96.131H496.327z M120.686,473.339H64.784v-31.347h55.902V473.339z
			 M169.273,425.273H64.784v-31.347h104.49V425.273z M169.273,377.208H64.784v-31.347h104.49V377.208z M98.952,317.127V285.78
			h31.347v31.347H98.952z M175.501,254.861H53.75V133.11h121.751V254.861z M259.657,473.339h-55.902v-31.347h55.902V473.339z
			 M308.245,425.273h-104.49v-31.347h104.49V425.273z M308.245,377.208h-104.49v-31.347h104.49V377.208z M240.327,317.127V285.78
			h31.347v31.347H240.327z M316.876,254.861H195.124V133.11h121.752V254.861z M398.629,473.339h-55.902v-31.347h55.902V473.339z
			 M447.216,425.273h-104.49v-31.347h104.49V425.273z M447.216,377.208h-104.49v-31.347h104.49V377.208z M381.701,317.127V285.78
			h31.347v31.347H381.701z M458.25,254.861H336.499V133.11H458.25V254.861z"/>
	</g>
</g>
</svg>