<svg width="15" height="15" viewBox="0 0 15 15" fill="none" xmlns="http://www.w3.org/2000/svg">
<path d="M7.50007 3.03849e-10C6.0167 -1.33491e-05 4.56663 0.439849 3.33325 1.26396C2.09987 2.08808 1.13856 3.25942 0.570903 4.62988C0.00324234 6.00034 -0.145278 7.50836 0.144124 8.96323C0.433525 10.4181 1.14785 11.7545 2.19677 12.8034C3.24568 13.8523 4.58208 14.5665 6.03695 14.8559C7.49183 15.1453 8.99984 14.9967 10.3703 14.429C11.7407 13.8613 12.9121 12.9 13.7361 11.6666C14.5602 10.4332 15 8.98312 15 7.49975C14.9977 5.51136 14.2068 3.60505 12.8008 2.19906C11.3948 0.793074 9.48846 0.00221727 7.50007 3.03849e-10ZM0.757091 7.49975C0.756346 6.55411 0.955294 5.61897 1.34092 4.75553L4.5575 13.5684C3.41813 13.0157 2.4574 12.1534 1.78528 11.0801C1.11317 10.0069 0.756843 8.76608 0.757091 7.49975ZM7.50007 14.2433C6.8552 14.2433 6.21367 14.1508 5.59509 13.9685L7.61848 8.08957L9.69093 13.768C9.70445 13.8003 9.72062 13.8314 9.73928 13.861C9.01994 14.1144 8.26275 14.2437 7.50007 14.2433ZM8.42931 4.33823C8.83525 4.3169 9.2011 4.27419 9.2011 4.27419C9.274 4.26745 9.34132 4.23231 9.38852 4.17635C9.43573 4.12039 9.45902 4.04811 9.45336 3.97512C9.44771 3.90212 9.41357 3.83429 9.35832 3.78626C9.30306 3.73823 9.23113 3.71387 9.15806 3.71844C9.15806 3.71844 8.06585 3.80418 7.36072 3.80418C6.69825 3.80418 5.58489 3.71844 5.58489 3.71844C5.51193 3.7141 5.44018 3.73858 5.38509 3.78663C5.33001 3.83467 5.29601 3.90243 5.2904 3.97531C5.28479 4.04818 5.30804 4.12035 5.35512 4.17625C5.40221 4.23215 5.46937 4.26732 5.54214 4.27419C5.54214 4.27419 5.88601 4.3169 6.24938 4.33823L7.29993 7.2167L5.82395 11.6423L3.36861 4.33823C3.77485 4.3169 4.1403 4.27421 4.1403 4.27421C4.21314 4.2674 4.28039 4.23222 4.32752 4.17626C4.37466 4.12031 4.3979 4.04806 4.39224 3.97512C4.38658 3.90218 4.35247 3.83438 4.29727 3.78637C4.24207 3.73835 4.1702 3.71396 4.09718 3.71847C4.09718 3.71847 3.00524 3.80421 2.3001 3.80421C2.17358 3.80421 2.02435 3.80109 1.86615 3.79601C2.40225 2.98011 3.10918 2.2904 3.93804 1.77456C4.76689 1.25872 5.6979 0.929072 6.66668 0.808408C7.63546 0.687743 8.61889 0.778943 9.54896 1.0757C10.479 1.37246 11.3335 1.86769 12.0534 2.52715C12.0244 2.52537 11.996 2.52175 11.9662 2.52175C11.6575 2.53095 11.3651 2.66203 11.1529 2.88631C10.9407 3.11058 10.8259 3.4098 10.8338 3.71847C10.9045 4.29664 11.1337 4.84399 11.4962 5.29998C11.8505 5.85622 12.043 6.50015 12.0521 7.15962C11.982 7.90636 11.8094 8.63988 11.539 9.33948L10.8663 11.5867L8.42931 4.33823ZM10.89 13.3281L12.9496 7.37341C13.2765 6.60951 13.4507 5.78902 13.4624 4.9582C13.4628 4.72631 13.4477 4.49465 13.4171 4.26479C14.2597 5.80695 14.4672 7.61713 13.9952 9.30994C13.5232 11.0027 12.4091 12.4445 10.89 13.3281Z" fill="black"/>
</svg>
