<svg width="42" height="42" viewBox="0 0 42 42" fill="none" xmlns="http://www.w3.org/2000/svg">
<path d="M42 20.6445C42 32.046 32.5981 41.2886 20.9995 41.2886C9.40239 41.2886 3.09925e-07 32.046 3.09925e-07 20.6445C3.09925e-07 9.24299 9.40239 -3.42561e-05 20.9995 -3.42561e-05C32.5981 -3.42561e-05 42 9.24299 42 20.6445Z" fill="black"/>
<path d="M22.167 8.0087L33.852 19.4957C34.4973 20.13 34.4973 21.1586 33.852 21.7929C33.2067 22.4272 32.1609 22.4272 31.5157 21.7929L19.8301 10.3059C19.1849 9.67159 19.1849 8.64303 19.8301 8.0087C20.4754 7.37438 21.5217 7.37438 22.167 8.0087Z" fill="white"/>
<path d="M16.3252 13.7522L21.0292 18.3766C21.6745 19.0109 21.6745 20.0394 21.0292 20.6738C20.3839 21.3081 19.3376 21.3081 18.6924 20.6738L13.9883 16.0494C13.3431 15.4151 13.3431 14.3866 13.9883 13.7522C14.6336 13.1179 15.6799 13.1179 16.3252 13.7522Z" fill="white"/>
<path d="M10.4819 19.4956L22.1669 30.9826C22.8122 31.617 22.8122 32.6455 22.1669 33.2798C21.5217 33.9142 20.4759 33.9142 19.8306 33.2798L8.14508 21.7929C7.49982 21.1585 7.49982 20.13 8.14508 19.4956C8.79034 18.8613 9.83664 18.8613 10.4819 19.4956Z" fill="white"/>
</svg>
